<svg width="379" height="209" viewBox="0 0 379 209" fill="none" xmlns="http://www.w3.org/2000/svg">
<path d="M7.01702 190.548V190.928C6.58636 190.941 6.25702 190.991 6.02902 191.08C5.81369 191.156 5.66802 191.308 5.59202 191.536C5.51602 191.751 5.47802 192.093 5.47802 192.562V201.986C5.47802 202.442 5.51602 202.784 5.59202 203.012C5.66802 203.24 5.81369 203.392 6.02902 203.468C6.25702 203.544 6.58636 203.595 7.01702 203.62V204C6.72569 203.975 6.35836 203.962 5.91502 203.962C5.48436 203.949 5.04736 203.943 4.60402 203.943C4.11002 203.943 3.64769 203.949 3.21702 203.962C2.78636 203.962 2.43802 203.975 2.17202 204V203.62C2.60269 203.595 2.92569 203.544 3.14102 203.468C3.36902 203.392 3.52102 203.24 3.59702 203.012C3.67302 202.784 3.71102 202.442 3.71102 201.986V192.562C3.71102 192.093 3.67302 191.751 3.59702 191.536C3.52102 191.308 3.36902 191.156 3.14102 191.08C2.92569 190.991 2.60269 190.941 2.17202 190.928V190.548C2.43802 190.561 2.78636 190.573 3.21702 190.586C3.64769 190.599 4.11002 190.605 4.60402 190.605C5.04736 190.605 5.48436 190.599 5.91502 190.586C6.35836 190.573 6.72569 190.561 7.01702 190.548ZM14.7475 193.949C15.2288 193.949 15.6278 194.012 15.9445 194.139C16.2738 194.266 16.5462 194.443 16.7615 194.671C17.0022 194.924 17.1732 195.241 17.2745 195.621C17.3758 196.001 17.4265 196.514 17.4265 197.16V202.233C17.4265 202.765 17.5342 203.126 17.7495 203.316C17.9775 203.506 18.3512 203.601 18.8705 203.601V204C18.6552 203.987 18.3258 203.975 17.8825 203.962C17.4392 203.937 17.0085 203.924 16.5905 203.924C16.1725 203.924 15.7608 203.937 15.3555 203.962C14.9628 203.975 14.6652 203.987 14.4625 204V203.601C14.9185 203.601 15.2415 203.506 15.4315 203.316C15.6215 203.126 15.7165 202.765 15.7165 202.233V196.742C15.7165 196.349 15.6848 195.988 15.6215 195.659C15.5582 195.33 15.4125 195.064 15.1845 194.861C14.9692 194.658 14.6335 194.557 14.1775 194.557C13.6455 194.557 13.1768 194.709 12.7715 195.013C12.3788 195.317 12.0685 195.735 11.8405 196.267C11.6252 196.786 11.5175 197.369 11.5175 198.015V202.233C11.5175 202.765 11.6125 203.126 11.8025 203.316C11.9925 203.506 12.3155 203.601 12.7715 203.601V204C12.5688 203.987 12.2648 203.975 11.8595 203.962C11.4668 203.937 11.0615 203.924 10.6435 203.924C10.2255 203.924 9.79483 203.937 9.3515 203.962C8.90817 203.975 8.57883 203.987 8.3635 204V203.601C8.88283 203.601 9.25017 203.506 9.4655 203.316C9.6935 203.126 9.8075 202.765 9.8075 202.233V196.286C9.8075 195.716 9.70617 195.298 9.5035 195.032C9.30083 194.753 8.92083 194.614 8.3635 194.614V194.215C8.76883 194.253 9.1615 194.272 9.5415 194.272C9.90883 194.272 10.2572 194.253 10.5865 194.215C10.9285 194.164 11.2388 194.095 11.5175 194.006V196.248C11.8468 195.387 12.3028 194.791 12.8855 194.462C13.4808 194.12 14.1015 193.949 14.7475 193.949ZM26.0844 193.949C26.5657 193.949 26.9647 194.012 27.2814 194.139C27.6107 194.266 27.8831 194.443 28.0984 194.671C28.3391 194.924 28.5101 195.241 28.6114 195.621C28.7127 196.001 28.7634 196.514 28.7634 197.16V202.233C28.7634 202.765 28.8711 203.126 29.0864 203.316C29.3144 203.506 29.6881 203.601 30.2074 203.601V204C29.9921 203.987 29.6627 203.975 29.2194 203.962C28.7761 203.937 28.3454 203.924 27.9274 203.924C27.5094 203.924 27.0977 203.937 26.6924 203.962C26.2997 203.975 26.0021 203.987 25.7994 204V203.601C26.2554 203.601 26.5784 203.506 26.7684 203.316C26.9584 203.126 27.0534 202.765 27.0534 202.233V196.742C27.0534 196.349 27.0217 195.988 26.9584 195.659C26.8951 195.33 26.7494 195.064 26.5214 194.861C26.3061 194.658 25.9704 194.557 25.5144 194.557C24.9824 194.557 24.5137 194.709 24.1084 195.013C23.7157 195.317 23.4054 195.735 23.1774 196.267C22.9621 196.786 22.8544 197.369 22.8544 198.015V202.233C22.8544 202.765 22.9494 203.126 23.1394 203.316C23.3294 203.506 23.6524 203.601 24.1084 203.601V204C23.9057 203.987 23.6017 203.975 23.1964 203.962C22.8037 203.937 22.3984 203.924 21.9804 203.924C21.5624 203.924 21.1317 203.937 20.6884 203.962C20.2451 203.975 19.9157 203.987 19.7004 204V203.601C20.2197 203.601 20.5871 203.506 20.8024 203.316C21.0304 203.126 21.1444 202.765 21.1444 202.233V196.286C21.1444 195.716 21.0431 195.298 20.8404 195.032C20.6377 194.753 20.2577 194.614 19.7004 194.614V194.215C20.1057 194.253 20.4984 194.272 20.8784 194.272C21.2457 194.272 21.5941 194.253 21.9234 194.215C22.2654 194.164 22.5757 194.095 22.8544 194.006V196.248C23.1837 195.387 23.6397 194.791 24.2224 194.462C24.8177 194.12 25.4384 193.949 26.0844 193.949ZM35.6923 193.949C36.503 193.949 37.2313 194.126 37.8773 194.481C38.5233 194.836 39.0363 195.393 39.4163 196.153C39.809 196.913 40.0053 197.901 40.0053 199.117C40.0053 200.333 39.809 201.321 39.4163 202.081C39.0363 202.828 38.5233 203.379 37.8773 203.734C37.2313 204.089 36.503 204.266 35.6923 204.266C34.8943 204.266 34.166 204.089 33.5073 203.734C32.8613 203.379 32.342 202.828 31.9493 202.081C31.5693 201.321 31.3793 200.333 31.3793 199.117C31.3793 197.901 31.5693 196.913 31.9493 196.153C32.342 195.393 32.8613 194.836 33.5073 194.481C34.166 194.126 34.8943 193.949 35.6923 193.949ZM35.6923 194.329C34.9703 194.329 34.375 194.703 33.9063 195.45C33.4503 196.197 33.2223 197.42 33.2223 199.117C33.2223 200.814 33.4503 202.037 33.9063 202.784C34.375 203.519 34.9703 203.886 35.6923 203.886C36.4143 203.886 37.0033 203.519 37.4593 202.784C37.928 202.037 38.1623 200.814 38.1623 199.117C38.1623 197.42 37.928 196.197 37.4593 195.45C37.0033 194.703 36.4143 194.329 35.6923 194.329ZM49.9996 194.215V194.595C49.759 194.62 49.5373 194.728 49.3346 194.918C49.132 195.108 48.942 195.444 48.7646 195.925L45.6486 204.095C45.598 204.095 45.5473 204.095 45.4966 204.095C45.446 204.095 45.389 204.095 45.3256 204.095L41.8296 195.678C41.627 195.184 41.4243 194.886 41.2216 194.785C41.0316 194.671 40.867 194.614 40.7276 194.614V194.215C40.981 194.228 41.2406 194.247 41.5066 194.272C41.7853 194.285 42.083 194.291 42.3996 194.291C42.7923 194.291 43.204 194.285 43.6346 194.272C44.078 194.259 44.4896 194.24 44.8696 194.215V194.614C44.553 194.614 44.268 194.639 44.0146 194.69C43.774 194.728 43.6156 194.848 43.5396 195.051C43.4763 195.254 43.5396 195.602 43.7296 196.096L46.1046 201.967L45.9906 202.062L48.1566 196.381C48.3213 195.963 48.3846 195.634 48.3466 195.393C48.3213 195.14 48.1946 194.95 47.9666 194.823C47.7513 194.696 47.4156 194.62 46.9596 194.595V194.215C47.1876 194.228 47.384 194.24 47.5486 194.253C47.7133 194.253 47.8716 194.259 48.0236 194.272C48.1883 194.272 48.3656 194.272 48.5556 194.272C48.847 194.272 49.1066 194.266 49.3346 194.253C49.5753 194.24 49.797 194.228 49.9996 194.215ZM53.1992 204.133C52.6799 204.133 52.2302 204.038 51.8502 203.848C51.4702 203.645 51.1789 203.367 50.9762 203.012C50.7862 202.657 50.6912 202.246 50.6912 201.777C50.6912 201.22 50.8179 200.764 51.0712 200.409C51.3372 200.054 51.6729 199.769 52.0782 199.554C52.4835 199.339 52.9079 199.161 53.3512 199.022C53.8072 198.87 54.2379 198.731 54.6432 198.604C55.0485 198.465 55.3779 198.306 55.6312 198.129C55.8972 197.952 56.0302 197.717 56.0302 197.426V196.248C56.0302 195.716 55.9479 195.311 55.7832 195.032C55.6312 194.753 55.4222 194.57 55.1562 194.481C54.8902 194.38 54.5925 194.329 54.2632 194.329C53.9465 194.329 53.6045 194.373 53.2372 194.462C52.8825 194.551 52.5975 194.734 52.3822 195.013C52.6229 195.064 52.8319 195.19 53.0092 195.393C53.1865 195.596 53.2752 195.855 53.2752 196.172C53.2752 196.489 53.1739 196.742 52.9712 196.932C52.7685 197.109 52.5089 197.198 52.1922 197.198C51.8249 197.198 51.5525 197.084 51.3752 196.856C51.2105 196.615 51.1282 196.349 51.1282 196.058C51.1282 195.729 51.2105 195.463 51.3752 195.26C51.5399 195.057 51.7489 194.867 52.0022 194.69C52.2935 194.487 52.6672 194.316 53.1232 194.177C53.5919 194.025 54.1175 193.949 54.7002 193.949C55.2195 193.949 55.6629 194.012 56.0302 194.139C56.3975 194.253 56.7015 194.424 56.9422 194.652C57.2715 194.956 57.4869 195.33 57.5882 195.773C57.6895 196.204 57.7402 196.723 57.7402 197.331V202.613C57.7402 202.93 57.7845 203.158 57.8732 203.297C57.9745 203.436 58.1265 203.506 58.3292 203.506C58.4685 203.506 58.6015 203.474 58.7282 203.411C58.8549 203.348 59.0069 203.246 59.1842 203.107L59.3932 203.43C59.1272 203.633 58.8739 203.804 58.6332 203.943C58.3925 204.07 58.0695 204.133 57.6642 204.133C57.2969 204.133 56.9929 204.07 56.7522 203.943C56.5115 203.816 56.3279 203.633 56.2012 203.392C56.0872 203.139 56.0302 202.822 56.0302 202.442C55.6882 203.012 55.2765 203.436 54.7952 203.715C54.3265 203.994 53.7945 204.133 53.1992 204.133ZM53.8832 203.373C54.3012 203.373 54.6875 203.253 55.0422 203.012C55.4095 202.771 55.7389 202.41 56.0302 201.929V198.205C55.8782 198.42 55.6565 198.604 55.3652 198.756C55.0739 198.895 54.7572 199.041 54.4152 199.193C54.0732 199.332 53.7439 199.503 53.4272 199.706C53.1232 199.896 52.8699 200.149 52.6672 200.466C52.4645 200.783 52.3632 201.194 52.3632 201.701C52.3632 202.208 52.4962 202.613 52.7622 202.917C53.0409 203.221 53.4145 203.373 53.8832 203.373ZM63.0231 191.061V194.234H65.8351V194.614H63.0231V201.967C63.0231 202.562 63.1308 202.98 63.3461 203.221C63.5614 203.462 63.8591 203.582 64.2391 203.582C64.6191 203.582 64.9484 203.43 65.2271 203.126C65.5058 202.809 65.7464 202.284 65.9491 201.549L66.3291 201.644C66.2024 202.379 65.9491 202.999 65.5691 203.506C65.2018 204.013 64.6318 204.266 63.8591 204.266C63.4284 204.266 63.0738 204.209 62.7951 204.095C62.5164 203.994 62.2694 203.842 62.0541 203.639C61.7754 203.348 61.5791 202.999 61.4651 202.594C61.3638 202.189 61.3131 201.65 61.3131 200.979V194.614H59.4891V194.234H61.3131V191.327C61.6298 191.314 61.9338 191.289 62.2251 191.251C62.5164 191.213 62.7824 191.15 63.0231 191.061ZM68.8469 189.465C69.1762 189.465 69.4612 189.585 69.7019 189.826C69.9425 190.067 70.0629 190.352 70.0629 190.681C70.0629 191.01 69.9425 191.295 69.7019 191.536C69.4612 191.777 69.1762 191.897 68.8469 191.897C68.5175 191.897 68.2325 191.777 67.9919 191.536C67.7512 191.295 67.6309 191.01 67.6309 190.681C67.6309 190.352 67.7512 190.067 67.9919 189.826C68.2325 189.585 68.5175 189.465 68.8469 189.465ZM69.8349 194.006V202.233C69.8349 202.765 69.9425 203.126 70.1579 203.316C70.3859 203.506 70.7595 203.601 71.2789 203.601V204C71.0635 203.987 70.7342 203.975 70.2909 203.962C69.8602 203.937 69.4232 203.924 68.9799 203.924C68.5492 203.924 68.1122 203.937 67.6689 203.962C67.2255 203.975 66.8962 203.987 66.6809 204V203.601C67.2002 203.601 67.5675 203.506 67.7829 203.316C68.0109 203.126 68.1249 202.765 68.1249 202.233V196.286C68.1249 195.716 68.0235 195.298 67.8209 195.032C67.6182 194.753 67.2382 194.614 66.6809 194.614V194.215C67.0862 194.253 67.4789 194.272 67.8589 194.272C68.2262 194.272 68.5745 194.253 68.9039 194.215C69.2459 194.164 69.5562 194.095 69.8349 194.006ZM76.9023 193.949C77.713 193.949 78.4413 194.126 79.0873 194.481C79.7333 194.836 80.2463 195.393 80.6263 196.153C81.019 196.913 81.2153 197.901 81.2153 199.117C81.2153 200.333 81.019 201.321 80.6263 202.081C80.2463 202.828 79.7333 203.379 79.0873 203.734C78.4413 204.089 77.713 204.266 76.9023 204.266C76.1043 204.266 75.376 204.089 74.7173 203.734C74.0713 203.379 73.552 202.828 73.1593 202.081C72.7793 201.321 72.5893 200.333 72.5893 199.117C72.5893 197.901 72.7793 196.913 73.1593 196.153C73.552 195.393 74.0713 194.836 74.7173 194.481C75.376 194.126 76.1043 193.949 76.9023 193.949ZM76.9023 194.329C76.1803 194.329 75.585 194.703 75.1163 195.45C74.6603 196.197 74.4323 197.42 74.4323 199.117C74.4323 200.814 74.6603 202.037 75.1163 202.784C75.585 203.519 76.1803 203.886 76.9023 203.886C77.6243 203.886 78.2133 203.519 78.6693 202.784C79.138 202.037 79.3723 200.814 79.3723 199.117C79.3723 197.42 79.138 196.197 78.6693 195.45C78.2133 194.703 77.6243 194.329 76.9023 194.329ZM89.0405 193.949C89.5218 193.949 89.9208 194.012 90.2375 194.139C90.5668 194.266 90.8391 194.443 91.0545 194.671C91.2951 194.924 91.4661 195.241 91.5675 195.621C91.6688 196.001 91.7195 196.514 91.7195 197.16V202.233C91.7195 202.765 91.8271 203.126 92.0425 203.316C92.2705 203.506 92.6441 203.601 93.1635 203.601V204C92.9481 203.987 92.6188 203.975 92.1755 203.962C91.7321 203.937 91.3015 203.924 90.8835 203.924C90.4655 203.924 90.0538 203.937 89.6485 203.962C89.2558 203.975 88.9581 203.987 88.7555 204V203.601C89.2115 203.601 89.5345 203.506 89.7245 203.316C89.9145 203.126 90.0095 202.765 90.0095 202.233V196.742C90.0095 196.349 89.9778 195.988 89.9145 195.659C89.8511 195.33 89.7055 195.064 89.4775 194.861C89.2621 194.658 88.9265 194.557 88.4705 194.557C87.9385 194.557 87.4698 194.709 87.0645 195.013C86.6718 195.317 86.3615 195.735 86.1335 196.267C85.9181 196.786 85.8105 197.369 85.8105 198.015V202.233C85.8105 202.765 85.9055 203.126 86.0955 203.316C86.2855 203.506 86.6085 203.601 87.0645 203.601V204C86.8618 203.987 86.5578 203.975 86.1525 203.962C85.7598 203.937 85.3545 203.924 84.9365 203.924C84.5185 203.924 84.0878 203.937 83.6445 203.962C83.2011 203.975 82.8718 203.987 82.6565 204V203.601C83.1758 203.601 83.5431 203.506 83.7585 203.316C83.9865 203.126 84.1005 202.765 84.1005 202.233V196.286C84.1005 195.716 83.9991 195.298 83.7965 195.032C83.5938 194.753 83.2138 194.614 82.6565 194.614V194.215C83.0618 194.253 83.4545 194.272 83.8345 194.272C84.2018 194.272 84.5501 194.253 84.8795 194.215C85.2215 194.164 85.5318 194.095 85.8105 194.006V196.248C86.1398 195.387 86.5958 194.791 87.1785 194.462C87.7738 194.12 88.3945 193.949 89.0405 193.949ZM103.038 190.339C103.671 190.339 104.152 190.415 104.482 190.567C104.811 190.706 105.102 190.865 105.356 191.042C105.508 191.131 105.628 191.2 105.717 191.251C105.818 191.289 105.913 191.308 106.002 191.308C106.128 191.308 106.217 191.238 106.268 191.099C106.331 190.96 106.382 190.751 106.42 190.472H106.857C106.844 190.687 106.825 190.947 106.8 191.251C106.787 191.542 106.774 191.935 106.762 192.429C106.762 192.91 106.762 193.55 106.762 194.348H106.325C106.287 193.74 106.154 193.157 105.926 192.6C105.698 192.043 105.362 191.587 104.919 191.232C104.488 190.877 103.918 190.7 103.209 190.7C102.537 190.7 101.98 190.903 101.537 191.308C101.106 191.713 100.891 192.245 100.891 192.904C100.891 193.474 101.036 193.955 101.328 194.348C101.619 194.728 102.005 195.076 102.487 195.393C102.981 195.697 103.513 196.026 104.083 196.381C104.741 196.786 105.324 197.192 105.831 197.597C106.35 197.99 106.755 198.427 107.047 198.908C107.351 199.389 107.503 199.972 107.503 200.656C107.503 201.467 107.319 202.138 106.952 202.67C106.584 203.202 106.097 203.601 105.489 203.867C104.881 204.133 104.209 204.266 103.475 204.266C102.803 204.266 102.271 204.19 101.879 204.038C101.486 203.886 101.15 203.728 100.872 203.563C100.593 203.386 100.378 203.297 100.226 203.297C100.099 203.297 100.004 203.367 99.9408 203.506C99.8902 203.645 99.8458 203.854 99.8078 204.133H99.3708C99.3962 203.867 99.4088 203.557 99.4088 203.202C99.4215 202.835 99.4278 202.36 99.4278 201.777C99.4405 201.194 99.4468 200.46 99.4468 199.573H99.8838C99.9345 200.333 100.074 201.042 100.302 201.701C100.542 202.36 100.903 202.892 101.385 203.297C101.879 203.69 102.531 203.886 103.342 203.886C103.76 203.886 104.152 203.804 104.52 203.639C104.9 203.462 105.21 203.189 105.451 202.822C105.691 202.442 105.812 201.954 105.812 201.359C105.812 200.84 105.685 200.39 105.432 200.01C105.191 199.617 104.849 199.256 104.406 198.927C103.962 198.585 103.443 198.237 102.848 197.882C102.252 197.515 101.695 197.141 101.176 196.761C100.656 196.381 100.238 195.944 99.9218 195.45C99.6178 194.943 99.4658 194.335 99.4658 193.626C99.4658 192.879 99.6305 192.264 99.9598 191.783C100.302 191.289 100.745 190.928 101.29 190.7C101.834 190.459 102.417 190.339 103.038 190.339ZM113.641 193.949C114.451 193.949 115.18 194.126 115.826 194.481C116.472 194.836 116.985 195.393 117.365 196.153C117.757 196.913 117.954 197.901 117.954 199.117C117.954 200.333 117.757 201.321 117.365 202.081C116.985 202.828 116.472 203.379 115.826 203.734C115.18 204.089 114.451 204.266 113.641 204.266C112.843 204.266 112.114 204.089 111.456 203.734C110.81 203.379 110.29 202.828 109.898 202.081C109.518 201.321 109.328 200.333 109.328 199.117C109.328 197.901 109.518 196.913 109.898 196.153C110.29 195.393 110.81 194.836 111.456 194.481C112.114 194.126 112.843 193.949 113.641 193.949ZM113.641 194.329C112.919 194.329 112.323 194.703 111.855 195.45C111.399 196.197 111.171 197.42 111.171 199.117C111.171 200.814 111.399 202.037 111.855 202.784C112.323 203.519 112.919 203.886 113.641 203.886C114.363 203.886 114.952 203.519 115.408 202.784C115.876 202.037 116.111 200.814 116.111 199.117C116.111 197.42 115.876 196.197 115.408 195.45C114.952 194.703 114.363 194.329 113.641 194.329ZM122.23 189.104V202.233C122.23 202.765 122.338 203.126 122.553 203.316C122.781 203.506 123.155 203.601 123.674 203.601V204C123.459 203.987 123.13 203.975 122.686 203.962C122.256 203.937 121.819 203.924 121.375 203.924C120.945 203.924 120.508 203.937 120.064 203.962C119.621 203.975 119.292 203.987 119.076 204V203.601C119.596 203.601 119.963 203.506 120.178 203.316C120.406 203.126 120.52 202.765 120.52 202.233V191.384C120.52 190.814 120.419 190.396 120.216 190.13C120.014 189.851 119.634 189.712 119.076 189.712V189.313C119.482 189.351 119.874 189.37 120.254 189.37C120.622 189.37 120.97 189.351 121.299 189.313C121.641 189.262 121.952 189.193 122.23 189.104ZM133.272 194.006V201.948C133.272 202.518 133.373 202.942 133.576 203.221C133.791 203.487 134.171 203.62 134.716 203.62V204.019C134.323 203.981 133.93 203.962 133.538 203.962C133.17 203.962 132.816 203.981 132.474 204.019C132.144 204.057 131.84 204.127 131.562 204.228V201.986C131.245 202.809 130.795 203.398 130.213 203.753C129.643 204.095 129.054 204.266 128.446 204.266C128.002 204.266 127.616 204.203 127.287 204.076C126.957 203.949 126.685 203.772 126.47 203.544C126.229 203.291 126.064 202.961 125.976 202.556C125.887 202.151 125.843 201.65 125.843 201.055V196.286C125.843 195.716 125.741 195.298 125.539 195.032C125.336 194.753 124.956 194.614 124.399 194.614V194.215C124.804 194.253 125.197 194.272 125.577 194.272C125.944 194.272 126.292 194.253 126.622 194.215C126.964 194.164 127.274 194.095 127.553 194.006V201.473C127.553 201.866 127.578 202.227 127.629 202.556C127.679 202.885 127.806 203.151 128.009 203.354C128.211 203.557 128.541 203.658 128.997 203.658C129.491 203.658 129.928 203.506 130.308 203.202C130.7 202.898 131.004 202.486 131.22 201.967C131.448 201.448 131.562 200.865 131.562 200.219V196.286C131.562 195.716 131.46 195.298 131.258 195.032C131.055 194.753 130.675 194.614 130.118 194.614V194.215C130.523 194.253 130.916 194.272 131.296 194.272C131.663 194.272 132.011 194.253 132.341 194.215C132.683 194.164 132.993 194.095 133.272 194.006ZM138.745 191.061V194.234H141.557V194.614H138.745V201.967C138.745 202.562 138.852 202.98 139.068 203.221C139.283 203.462 139.581 203.582 139.961 203.582C140.341 203.582 140.67 203.43 140.949 203.126C141.227 202.809 141.468 202.284 141.671 201.549L142.051 201.644C141.924 202.379 141.671 202.999 141.291 203.506C140.923 204.013 140.353 204.266 139.581 204.266C139.15 204.266 138.795 204.209 138.517 204.095C138.238 203.994 137.991 203.842 137.776 203.639C137.497 203.348 137.301 202.999 137.187 202.594C137.085 202.189 137.035 201.65 137.035 200.979V194.614H135.211V194.234H137.035V191.327C137.351 191.314 137.655 191.289 137.947 191.251C138.238 191.213 138.504 191.15 138.745 191.061ZM144.569 189.465C144.898 189.465 145.183 189.585 145.424 189.826C145.664 190.067 145.785 190.352 145.785 190.681C145.785 191.01 145.664 191.295 145.424 191.536C145.183 191.777 144.898 191.897 144.569 191.897C144.239 191.897 143.954 191.777 143.714 191.536C143.473 191.295 143.353 191.01 143.353 190.681C143.353 190.352 143.473 190.067 143.714 189.826C143.954 189.585 144.239 189.465 144.569 189.465ZM145.557 194.006V202.233C145.557 202.765 145.664 203.126 145.88 203.316C146.108 203.506 146.481 203.601 147.001 203.601V204C146.785 203.987 146.456 203.975 146.013 203.962C145.582 203.937 145.145 203.924 144.702 203.924C144.271 203.924 143.834 203.937 143.391 203.962C142.947 203.975 142.618 203.987 142.403 204V203.601C142.922 203.601 143.289 203.506 143.505 203.316C143.733 203.126 143.847 202.765 143.847 202.233V196.286C143.847 195.716 143.745 195.298 143.543 195.032C143.34 194.753 142.96 194.614 142.403 194.614V194.215C142.808 194.253 143.201 194.272 143.581 194.272C143.948 194.272 144.296 194.253 144.626 194.215C144.968 194.164 145.278 194.095 145.557 194.006ZM152.624 193.949C153.435 193.949 154.163 194.126 154.809 194.481C155.455 194.836 155.968 195.393 156.348 196.153C156.741 196.913 156.937 197.901 156.937 199.117C156.937 200.333 156.741 201.321 156.348 202.081C155.968 202.828 155.455 203.379 154.809 203.734C154.163 204.089 153.435 204.266 152.624 204.266C151.826 204.266 151.098 204.089 150.439 203.734C149.793 203.379 149.274 202.828 148.881 202.081C148.501 201.321 148.311 200.333 148.311 199.117C148.311 197.901 148.501 196.913 148.881 196.153C149.274 195.393 149.793 194.836 150.439 194.481C151.098 194.126 151.826 193.949 152.624 193.949ZM152.624 194.329C151.902 194.329 151.307 194.703 150.838 195.45C150.382 196.197 150.154 197.42 150.154 199.117C150.154 200.814 150.382 202.037 150.838 202.784C151.307 203.519 151.902 203.886 152.624 203.886C153.346 203.886 153.935 203.519 154.391 202.784C154.86 202.037 155.094 200.814 155.094 199.117C155.094 197.42 154.86 196.197 154.391 195.45C153.935 194.703 153.346 194.329 152.624 194.329ZM164.762 193.949C165.243 193.949 165.642 194.012 165.959 194.139C166.288 194.266 166.561 194.443 166.776 194.671C167.017 194.924 167.188 195.241 167.289 195.621C167.39 196.001 167.441 196.514 167.441 197.16V202.233C167.441 202.765 167.549 203.126 167.764 203.316C167.992 203.506 168.366 203.601 168.885 203.601V204C168.67 203.987 168.34 203.975 167.897 203.962C167.454 203.937 167.023 203.924 166.605 203.924C166.187 203.924 165.775 203.937 165.37 203.962C164.977 203.975 164.68 203.987 164.477 204V203.601C164.933 203.601 165.256 203.506 165.446 203.316C165.636 203.126 165.731 202.765 165.731 202.233V196.742C165.731 196.349 165.699 195.988 165.636 195.659C165.573 195.33 165.427 195.064 165.199 194.861C164.984 194.658 164.648 194.557 164.192 194.557C163.66 194.557 163.191 194.709 162.786 195.013C162.393 195.317 162.083 195.735 161.855 196.267C161.64 196.786 161.532 197.369 161.532 198.015V202.233C161.532 202.765 161.627 203.126 161.817 203.316C162.007 203.506 162.33 203.601 162.786 203.601V204C162.583 203.987 162.279 203.975 161.874 203.962C161.481 203.937 161.076 203.924 160.658 203.924C160.24 203.924 159.809 203.937 159.366 203.962C158.923 203.975 158.593 203.987 158.378 204V203.601C158.897 203.601 159.265 203.506 159.48 203.316C159.708 203.126 159.822 202.765 159.822 202.233V196.286C159.822 195.716 159.721 195.298 159.518 195.032C159.315 194.753 158.935 194.614 158.378 194.614V194.215C158.783 194.253 159.176 194.272 159.556 194.272C159.923 194.272 160.272 194.253 160.601 194.215C160.943 194.164 161.253 194.095 161.532 194.006V196.248C161.861 195.387 162.317 194.791 162.9 194.462C163.495 194.12 164.116 193.949 164.762 193.949ZM173.116 193.949C173.623 193.949 174.053 194.031 174.408 194.196C174.763 194.361 175.022 194.513 175.187 194.652C175.605 194.994 175.858 194.766 175.947 193.968H176.384C176.359 194.323 176.34 194.747 176.327 195.241C176.314 195.722 176.308 196.375 176.308 197.198H175.871C175.795 196.729 175.662 196.273 175.472 195.83C175.295 195.387 175.029 195.026 174.674 194.747C174.319 194.456 173.857 194.31 173.287 194.31C172.844 194.31 172.47 194.437 172.166 194.69C171.875 194.931 171.729 195.292 171.729 195.773C171.729 196.153 171.843 196.482 172.071 196.761C172.299 197.027 172.597 197.28 172.964 197.521C173.331 197.749 173.73 198.002 174.161 198.281C174.642 198.585 175.079 198.895 175.472 199.212C175.865 199.529 176.175 199.877 176.403 200.257C176.644 200.637 176.764 201.087 176.764 201.606C176.764 202.189 176.612 202.676 176.308 203.069C176.004 203.462 175.605 203.759 175.111 203.962C174.63 204.165 174.098 204.266 173.515 204.266C173.236 204.266 172.97 204.241 172.717 204.19C172.476 204.152 172.242 204.089 172.014 204C171.887 203.937 171.754 203.861 171.615 203.772C171.488 203.683 171.362 203.588 171.235 203.487C171.108 203.386 170.994 203.392 170.893 203.506C170.792 203.607 170.716 203.816 170.665 204.133H170.228C170.253 203.728 170.272 203.234 170.285 202.651C170.298 202.068 170.304 201.296 170.304 200.333H170.741C170.83 201.042 170.956 201.663 171.121 202.195C171.286 202.727 171.545 203.145 171.9 203.449C172.255 203.74 172.749 203.886 173.382 203.886C173.635 203.886 173.889 203.829 174.142 203.715C174.408 203.601 174.63 203.411 174.807 203.145C174.984 202.879 175.073 202.524 175.073 202.081C175.073 201.524 174.87 201.068 174.465 200.713C174.06 200.358 173.547 199.985 172.926 199.592C172.47 199.301 172.039 199.009 171.634 198.718C171.241 198.427 170.918 198.097 170.665 197.73C170.424 197.363 170.304 196.919 170.304 196.4C170.304 195.83 170.431 195.368 170.684 195.013C170.95 194.646 171.298 194.38 171.729 194.215C172.16 194.038 172.622 193.949 173.116 193.949ZM187.638 189.142C187.992 189.142 188.303 189.193 188.569 189.294C188.847 189.383 189.088 189.503 189.291 189.655C189.481 189.807 189.626 189.984 189.728 190.187C189.829 190.39 189.88 190.605 189.88 190.833C189.88 191.124 189.785 191.365 189.595 191.555C189.405 191.745 189.164 191.84 188.873 191.84C188.594 191.84 188.347 191.751 188.132 191.574C187.929 191.384 187.828 191.131 187.828 190.814C187.828 190.548 187.897 190.333 188.037 190.168C188.189 190.003 188.385 189.896 188.626 189.845C188.588 189.731 188.486 189.636 188.322 189.56C188.17 189.471 187.961 189.427 187.695 189.427C187.403 189.427 187.15 189.49 186.935 189.617C186.732 189.744 186.574 189.915 186.46 190.13C186.308 190.396 186.213 190.795 186.175 191.327C186.137 191.846 186.118 192.651 186.118 193.74V194.234H188.151V194.614H186.118V202.043C186.118 202.664 186.295 203.082 186.65 203.297C187.017 203.5 187.511 203.601 188.132 203.601V204C187.84 203.987 187.429 203.975 186.897 203.962C186.365 203.937 185.801 203.924 185.206 203.924C184.775 203.924 184.344 203.937 183.914 203.962C183.496 203.975 183.179 203.987 182.964 204V203.601C183.483 203.601 183.85 203.506 184.066 203.316C184.294 203.126 184.408 202.765 184.408 202.233V194.614H182.888V194.234H184.408C184.408 193.487 184.439 192.86 184.503 192.353C184.566 191.846 184.667 191.416 184.807 191.061C184.946 190.694 185.136 190.371 185.377 190.092C185.63 189.801 185.953 189.573 186.346 189.408C186.738 189.231 187.169 189.142 187.638 189.142ZM193.593 193.949C194.403 193.949 195.132 194.126 195.778 194.481C196.424 194.836 196.937 195.393 197.317 196.153C197.709 196.913 197.906 197.901 197.906 199.117C197.906 200.333 197.709 201.321 197.317 202.081C196.937 202.828 196.424 203.379 195.778 203.734C195.132 204.089 194.403 204.266 193.593 204.266C192.795 204.266 192.066 204.089 191.408 203.734C190.762 203.379 190.242 202.828 189.85 202.081C189.47 201.321 189.28 200.333 189.28 199.117C189.28 197.901 189.47 196.913 189.85 196.153C190.242 195.393 190.762 194.836 191.408 194.481C192.066 194.126 192.795 193.949 193.593 193.949ZM193.593 194.329C192.871 194.329 192.275 194.703 191.807 195.45C191.351 196.197 191.123 197.42 191.123 199.117C191.123 200.814 191.351 202.037 191.807 202.784C192.275 203.519 192.871 203.886 193.593 203.886C194.315 203.886 194.904 203.519 195.36 202.784C195.828 202.037 196.063 200.814 196.063 199.117C196.063 197.42 195.828 196.197 195.36 195.45C194.904 194.703 194.315 194.329 193.593 194.329ZM205.256 193.949C205.598 193.949 205.896 194.019 206.149 194.158C206.415 194.297 206.618 194.481 206.757 194.709C206.909 194.924 206.985 195.171 206.985 195.45C206.985 195.767 206.884 196.045 206.681 196.286C206.491 196.527 206.231 196.647 205.902 196.647C205.636 196.647 205.402 196.565 205.199 196.4C204.996 196.223 204.895 195.976 204.895 195.659C204.895 195.418 204.958 195.216 205.085 195.051C205.224 194.874 205.376 194.734 205.541 194.633C205.452 194.506 205.319 194.443 205.142 194.443C204.749 194.443 204.388 194.563 204.059 194.804C203.73 195.032 203.451 195.33 203.223 195.697C202.995 196.064 202.818 196.457 202.691 196.875C202.564 197.28 202.501 197.66 202.501 198.015V202.043C202.501 202.664 202.678 203.082 203.033 203.297C203.4 203.5 203.894 203.601 204.515 203.601V204C204.224 203.987 203.812 203.975 203.28 203.962C202.748 203.937 202.184 203.924 201.589 203.924C201.158 203.924 200.728 203.937 200.297 203.962C199.879 203.975 199.562 203.987 199.347 204V203.601C199.866 203.601 200.234 203.506 200.449 203.316C200.677 203.126 200.791 202.765 200.791 202.233V196.286C200.791 195.716 200.69 195.298 200.487 195.032C200.284 194.753 199.904 194.614 199.347 194.614V194.215C199.752 194.253 200.145 194.272 200.525 194.272C200.892 194.272 201.241 194.253 201.57 194.215C201.912 194.164 202.222 194.095 202.501 194.006V196.381C202.64 196.014 202.837 195.646 203.09 195.279C203.356 194.899 203.673 194.582 204.04 194.329C204.407 194.076 204.813 193.949 205.256 193.949ZM212.378 190.548C212.644 190.561 212.992 190.573 213.423 190.586C213.854 190.599 214.278 190.605 214.696 190.605C215.291 190.605 215.861 190.599 216.406 190.586C216.951 190.573 217.337 190.567 217.565 190.567C218.895 190.567 219.896 190.846 220.567 191.403C221.238 191.96 221.574 192.676 221.574 193.55C221.574 193.993 221.479 194.43 221.289 194.861C221.112 195.279 220.808 195.665 220.377 196.02C219.959 196.362 219.395 196.641 218.686 196.856V196.894C219.687 197.021 220.466 197.261 221.023 197.616C221.593 197.958 221.992 198.363 222.22 198.832C222.448 199.301 222.562 199.795 222.562 200.314C222.562 201.036 222.378 201.676 222.011 202.233C221.656 202.778 221.137 203.208 220.453 203.525C219.769 203.842 218.952 204 218.002 204C217.723 204 217.305 203.994 216.748 203.981C216.191 203.956 215.519 203.943 214.734 203.943C214.291 203.943 213.854 203.949 213.423 203.962C212.992 203.962 212.644 203.975 212.378 204V203.62C212.809 203.595 213.132 203.544 213.347 203.468C213.575 203.392 213.727 203.24 213.803 203.012C213.879 202.784 213.917 202.442 213.917 201.986V192.562C213.917 192.093 213.879 191.751 213.803 191.536C213.727 191.308 213.575 191.156 213.347 191.08C213.132 190.991 212.809 190.941 212.378 190.928V190.548ZM217.09 190.928C216.507 190.928 216.127 191.036 215.95 191.251C215.773 191.466 215.684 191.903 215.684 192.562V201.986C215.684 202.429 215.722 202.765 215.798 202.993C215.874 203.221 216.013 203.373 216.216 203.449C216.419 203.525 216.716 203.563 217.109 203.563C218.35 203.563 219.25 203.278 219.807 202.708C220.377 202.125 220.662 201.302 220.662 200.238C220.662 199.263 220.396 198.509 219.864 197.977C219.345 197.445 218.483 197.179 217.28 197.179H215.323C215.323 197.179 215.323 197.128 215.323 197.027C215.323 196.913 215.323 196.856 215.323 196.856H216.957C217.704 196.856 218.281 196.717 218.686 196.438C219.091 196.147 219.37 195.767 219.522 195.298C219.674 194.817 219.75 194.304 219.75 193.759C219.75 192.822 219.541 192.119 219.123 191.65C218.718 191.169 218.04 190.928 217.09 190.928ZM228.586 193.949C229.701 193.949 230.568 194.291 231.189 194.975C231.822 195.646 232.139 196.698 232.139 198.129H225.432L225.413 197.768H230.315C230.34 197.147 230.29 196.577 230.163 196.058C230.036 195.526 229.834 195.102 229.555 194.785C229.289 194.468 228.941 194.31 228.51 194.31C227.927 194.31 227.408 194.601 226.952 195.184C226.509 195.767 226.243 196.691 226.154 197.958L226.211 198.034C226.186 198.224 226.167 198.433 226.154 198.661C226.141 198.889 226.135 199.117 226.135 199.345C226.135 200.206 226.274 200.947 226.553 201.568C226.832 202.189 227.193 202.664 227.636 202.993C228.092 203.31 228.561 203.468 229.042 203.468C229.422 203.468 229.783 203.411 230.125 203.297C230.467 203.17 230.784 202.968 231.075 202.689C231.366 202.41 231.62 202.037 231.835 201.568L232.215 201.72C232.076 202.138 231.848 202.543 231.531 202.936C231.214 203.329 230.815 203.652 230.334 203.905C229.853 204.146 229.295 204.266 228.662 204.266C227.75 204.266 226.965 204.057 226.306 203.639C225.66 203.221 225.16 202.645 224.805 201.91C224.463 201.163 224.292 200.308 224.292 199.345C224.292 198.23 224.469 197.274 224.824 196.476C225.179 195.665 225.679 195.045 226.325 194.614C226.971 194.171 227.725 193.949 228.586 193.949ZM236.639 191.061V194.234H239.451V194.614H236.639V201.967C236.639 202.562 236.747 202.98 236.962 203.221C237.178 203.462 237.475 203.582 237.855 203.582C238.235 203.582 238.565 203.43 238.843 203.126C239.122 202.809 239.363 202.284 239.565 201.549L239.945 201.644C239.819 202.379 239.565 202.999 239.185 203.506C238.818 204.013 238.248 204.266 237.475 204.266C237.045 204.266 236.69 204.209 236.411 204.095C236.133 203.994 235.886 203.842 235.67 203.639C235.392 203.348 235.195 202.999 235.081 202.594C234.98 202.189 234.929 201.65 234.929 200.979V194.614H233.105V194.234H234.929V191.327C235.246 191.314 235.55 191.289 235.841 191.251C236.133 191.213 236.399 191.15 236.639 191.061ZM242.595 191.061V194.234H245.407V194.614H242.595V201.967C242.595 202.562 242.703 202.98 242.918 203.221C243.134 203.462 243.431 203.582 243.811 203.582C244.191 203.582 244.521 203.43 244.799 203.126C245.078 202.809 245.319 202.284 245.521 201.549L245.901 201.644C245.775 202.379 245.521 202.999 245.141 203.506C244.774 204.013 244.204 204.266 243.431 204.266C243.001 204.266 242.646 204.209 242.367 204.095C242.089 203.994 241.842 203.842 241.626 203.639C241.348 203.348 241.151 202.999 241.037 202.594C240.936 202.189 240.885 201.65 240.885 200.979V194.614H239.061V194.234H240.885V191.327C241.202 191.314 241.506 191.289 241.797 191.251C242.089 191.213 242.355 191.15 242.595 191.061ZM250.87 193.949C251.985 193.949 252.852 194.291 253.473 194.975C254.106 195.646 254.423 196.698 254.423 198.129H247.716L247.697 197.768H252.599C252.624 197.147 252.574 196.577 252.447 196.058C252.32 195.526 252.118 195.102 251.839 194.785C251.573 194.468 251.225 194.31 250.794 194.31C250.211 194.31 249.692 194.601 249.236 195.184C248.793 195.767 248.527 196.691 248.438 197.958L248.495 198.034C248.47 198.224 248.451 198.433 248.438 198.661C248.425 198.889 248.419 199.117 248.419 199.345C248.419 200.206 248.558 200.947 248.837 201.568C249.116 202.189 249.477 202.664 249.92 202.993C250.376 203.31 250.845 203.468 251.326 203.468C251.706 203.468 252.067 203.411 252.409 203.297C252.751 203.17 253.068 202.968 253.359 202.689C253.65 202.41 253.904 202.037 254.119 201.568L254.499 201.72C254.36 202.138 254.132 202.543 253.815 202.936C253.498 203.329 253.099 203.652 252.618 203.905C252.137 204.146 251.579 204.266 250.946 204.266C250.034 204.266 249.249 204.057 248.59 203.639C247.944 203.221 247.444 202.645 247.089 201.91C246.747 201.163 246.576 200.308 246.576 199.345C246.576 198.23 246.753 197.274 247.108 196.476C247.463 195.665 247.963 195.045 248.609 194.614C249.255 194.171 250.009 193.949 250.87 193.949ZM261.773 193.949C262.115 193.949 262.413 194.019 262.666 194.158C262.932 194.297 263.135 194.481 263.274 194.709C263.426 194.924 263.502 195.171 263.502 195.45C263.502 195.767 263.401 196.045 263.198 196.286C263.008 196.527 262.749 196.647 262.419 196.647C262.153 196.647 261.919 196.565 261.716 196.4C261.514 196.223 261.412 195.976 261.412 195.659C261.412 195.418 261.476 195.216 261.602 195.051C261.742 194.874 261.894 194.734 262.058 194.633C261.97 194.506 261.837 194.443 261.659 194.443C261.267 194.443 260.906 194.563 260.576 194.804C260.247 195.032 259.968 195.33 259.74 195.697C259.512 196.064 259.335 196.457 259.208 196.875C259.082 197.28 259.018 197.66 259.018 198.015V202.043C259.018 202.664 259.196 203.082 259.55 203.297C259.918 203.5 260.412 203.601 261.032 203.601V204C260.741 203.987 260.329 203.975 259.797 203.962C259.265 203.937 258.702 203.924 258.106 203.924C257.676 203.924 257.245 203.937 256.814 203.962C256.396 203.975 256.08 203.987 255.864 204V203.601C256.384 203.601 256.751 203.506 256.966 203.316C257.194 203.126 257.308 202.765 257.308 202.233V196.286C257.308 195.716 257.207 195.298 257.004 195.032C256.802 194.753 256.422 194.614 255.864 194.614V194.215C256.27 194.253 256.662 194.272 257.042 194.272C257.41 194.272 257.758 194.253 258.087 194.215C258.429 194.164 258.74 194.095 259.018 194.006V196.381C259.158 196.014 259.354 195.646 259.607 195.279C259.873 194.899 260.19 194.582 260.557 194.329C260.925 194.076 261.33 193.949 261.773 193.949ZM279.754 190.548C279.703 191.029 279.665 191.498 279.64 191.954C279.627 192.397 279.621 192.739 279.621 192.98C279.621 193.284 279.627 193.569 279.64 193.835C279.653 194.101 279.665 194.335 279.678 194.538H279.241C279.152 193.651 279.032 192.955 278.88 192.448C278.728 191.929 278.462 191.555 278.082 191.327C277.702 191.099 277.113 190.985 276.315 190.985H275.289V201.796C275.289 202.303 275.333 202.683 275.422 202.936C275.523 203.189 275.713 203.36 275.992 203.449C276.271 203.538 276.676 203.595 277.208 203.62V204C276.879 203.975 276.461 203.962 275.954 203.962C275.447 203.949 274.934 203.943 274.415 203.943C273.845 203.943 273.307 203.949 272.8 203.962C272.306 203.962 271.907 203.975 271.603 204V203.62C272.135 203.595 272.54 203.538 272.819 203.449C273.098 203.36 273.281 203.189 273.37 202.936C273.471 202.683 273.522 202.303 273.522 201.796V190.985H272.496C271.711 190.985 271.122 191.099 270.729 191.327C270.349 191.555 270.083 191.929 269.931 192.448C269.779 192.955 269.659 193.651 269.57 194.538H269.133C269.158 194.335 269.171 194.101 269.171 193.835C269.184 193.569 269.19 193.284 269.19 192.98C269.19 192.739 269.177 192.397 269.152 191.954C269.139 191.498 269.108 191.029 269.057 190.548C269.589 190.561 270.165 190.573 270.786 190.586C271.419 190.599 272.053 190.605 272.686 190.605C273.319 190.605 273.896 190.605 274.415 190.605C274.934 190.605 275.504 190.605 276.125 190.605C276.758 190.605 277.392 190.599 278.025 190.586C278.658 190.573 279.235 190.561 279.754 190.548ZM284.696 193.949C285.507 193.949 286.235 194.126 286.881 194.481C287.527 194.836 288.04 195.393 288.42 196.153C288.813 196.913 289.009 197.901 289.009 199.117C289.009 200.333 288.813 201.321 288.42 202.081C288.04 202.828 287.527 203.379 286.881 203.734C286.235 204.089 285.507 204.266 284.696 204.266C283.898 204.266 283.17 204.089 282.511 203.734C281.865 203.379 281.346 202.828 280.953 202.081C280.573 201.321 280.383 200.333 280.383 199.117C280.383 197.901 280.573 196.913 280.953 196.153C281.346 195.393 281.865 194.836 282.511 194.481C283.17 194.126 283.898 193.949 284.696 193.949ZM284.696 194.329C283.974 194.329 283.379 194.703 282.91 195.45C282.454 196.197 282.226 197.42 282.226 199.117C282.226 200.814 282.454 202.037 282.91 202.784C283.379 203.519 283.974 203.886 284.696 203.886C285.418 203.886 286.007 203.519 286.463 202.784C286.932 202.037 287.166 200.814 287.166 199.117C287.166 197.42 286.932 196.197 286.463 195.45C286.007 194.703 285.418 194.329 284.696 194.329ZM296.72 193.949C297.164 193.949 297.55 194.012 297.879 194.139C298.209 194.266 298.481 194.443 298.696 194.671C298.937 194.924 299.102 195.254 299.19 195.659C299.279 196.064 299.323 196.565 299.323 197.16V202.233C299.323 202.765 299.431 203.126 299.646 203.316C299.874 203.506 300.248 203.601 300.767 203.601V204C300.552 203.987 300.223 203.975 299.779 203.962C299.336 203.937 298.905 203.924 298.487 203.924C298.069 203.924 297.658 203.937 297.252 203.962C296.86 203.975 296.562 203.987 296.359 204V203.601C296.815 203.601 297.138 203.506 297.328 203.316C297.518 203.126 297.613 202.765 297.613 202.233V196.742C297.613 196.349 297.588 195.988 297.537 195.659C297.487 195.33 297.36 195.064 297.157 194.861C296.955 194.658 296.625 194.557 296.169 194.557C295.675 194.557 295.232 194.709 294.839 195.013C294.459 195.317 294.155 195.735 293.927 196.267C293.712 196.786 293.604 197.369 293.604 198.015V202.233C293.604 202.765 293.699 203.126 293.889 203.316C294.079 203.506 294.402 203.601 294.858 203.601V204C294.656 203.987 294.352 203.975 293.946 203.962C293.554 203.937 293.148 203.924 292.73 203.924C292.312 203.924 291.882 203.937 291.438 203.962C290.995 203.975 290.666 203.987 290.45 204V203.601C290.97 203.601 291.337 203.506 291.552 203.316C291.78 203.126 291.894 202.765 291.894 202.233V196.286C291.894 195.716 291.793 195.298 291.59 195.032C291.388 194.753 291.008 194.614 290.45 194.614V194.215C290.856 194.253 291.248 194.272 291.628 194.272C291.996 194.272 292.344 194.253 292.673 194.215C293.015 194.164 293.326 194.095 293.604 194.006V196.248C293.934 195.425 294.383 194.836 294.953 194.481C295.523 194.126 296.112 193.949 296.72 193.949ZM302.439 193.949C302.883 193.949 303.269 194.012 303.598 194.139C303.928 194.266 304.2 194.443 304.415 194.671C304.656 194.924 304.821 195.254 304.909 195.659C304.998 196.064 305.042 196.565 305.042 197.16V202.233C305.042 202.765 305.15 203.126 305.365 203.316C305.593 203.506 305.967 203.601 306.486 203.601V204C306.271 203.987 305.942 203.975 305.498 203.962C305.055 203.937 304.624 203.924 304.206 203.924C303.788 203.924 303.377 203.937 302.971 203.962C302.579 203.975 302.281 203.987 302.078 204V203.601C302.534 203.601 302.857 203.506 303.047 203.316C303.237 203.126 303.332 202.765 303.332 202.233V196.742C303.332 196.349 303.307 195.988 303.256 195.659C303.206 195.33 303.079 195.064 302.876 194.861C302.674 194.658 302.344 194.557 301.888 194.557C301.394 194.557 300.951 194.709 300.558 195.013C300.178 195.317 299.874 195.729 299.646 196.248C299.431 196.767 299.323 197.35 299.323 197.996L299.266 196.229C299.608 195.355 300.071 194.76 300.653 194.443C301.236 194.114 301.831 193.949 302.439 193.949ZM311.972 193.949C312.782 193.949 313.511 194.126 314.157 194.481C314.803 194.836 315.316 195.393 315.696 196.153C316.088 196.913 316.285 197.901 316.285 199.117C316.285 200.333 316.088 201.321 315.696 202.081C315.316 202.828 314.803 203.379 314.157 203.734C313.511 204.089 312.782 204.266 311.972 204.266C311.174 204.266 310.445 204.089 309.787 203.734C309.141 203.379 308.621 202.828 308.229 202.081C307.849 201.321 307.659 200.333 307.659 199.117C307.659 197.901 307.849 196.913 308.229 196.153C308.621 195.393 309.141 194.836 309.787 194.481C310.445 194.126 311.174 193.949 311.972 193.949ZM311.972 194.329C311.25 194.329 310.654 194.703 310.186 195.45C309.73 196.197 309.502 197.42 309.502 199.117C309.502 200.814 309.73 202.037 310.186 202.784C310.654 203.519 311.25 203.886 311.972 203.886C312.694 203.886 313.283 203.519 313.739 202.784C314.207 202.037 314.442 200.814 314.442 199.117C314.442 197.42 314.207 196.197 313.739 195.45C313.283 194.703 312.694 194.329 311.972 194.329ZM323.635 193.949C323.977 193.949 324.274 194.019 324.528 194.158C324.794 194.297 324.996 194.481 325.136 194.709C325.288 194.924 325.364 195.171 325.364 195.45C325.364 195.767 325.262 196.045 325.06 196.286C324.87 196.527 324.61 196.647 324.281 196.647C324.015 196.647 323.78 196.565 323.578 196.4C323.375 196.223 323.274 195.976 323.274 195.659C323.274 195.418 323.337 195.216 323.464 195.051C323.603 194.874 323.755 194.734 323.92 194.633C323.831 194.506 323.698 194.443 323.521 194.443C323.128 194.443 322.767 194.563 322.438 194.804C322.108 195.032 321.83 195.33 321.602 195.697C321.374 196.064 321.196 196.457 321.07 196.875C320.943 197.28 320.88 197.66 320.88 198.015V202.043C320.88 202.664 321.057 203.082 321.412 203.297C321.779 203.5 322.273 203.601 322.894 203.601V204C322.602 203.987 322.191 203.975 321.659 203.962C321.127 203.937 320.563 203.924 319.968 203.924C319.537 203.924 319.106 203.937 318.676 203.962C318.258 203.975 317.941 203.987 317.726 204V203.601C318.245 203.601 318.612 203.506 318.828 203.316C319.056 203.126 319.17 202.765 319.17 202.233V196.286C319.17 195.716 319.068 195.298 318.866 195.032C318.663 194.753 318.283 194.614 317.726 194.614V194.215C318.131 194.253 318.524 194.272 318.904 194.272C319.271 194.272 319.619 194.253 319.949 194.215C320.291 194.164 320.601 194.095 320.88 194.006V196.381C321.019 196.014 321.215 195.646 321.469 195.279C321.735 194.899 322.051 194.582 322.419 194.329C322.786 194.076 323.191 193.949 323.635 193.949ZM332.096 193.949C332.438 193.949 332.735 194.019 332.989 194.158C333.255 194.297 333.457 194.481 333.597 194.709C333.749 194.924 333.825 195.171 333.825 195.45C333.825 195.767 333.723 196.045 333.521 196.286C333.331 196.527 333.071 196.647 332.742 196.647C332.476 196.647 332.241 196.565 332.039 196.4C331.836 196.223 331.735 195.976 331.735 195.659C331.735 195.418 331.798 195.216 331.925 195.051C332.064 194.874 332.216 194.734 332.381 194.633C332.292 194.506 332.159 194.443 331.982 194.443C331.589 194.443 331.228 194.563 330.899 194.804C330.569 195.032 330.291 195.33 330.063 195.697C329.835 196.064 329.657 196.457 329.531 196.875C329.404 197.28 329.341 197.66 329.341 198.015V202.043C329.341 202.664 329.518 203.082 329.873 203.297C330.24 203.5 330.734 203.601 331.355 203.601V204C331.063 203.987 330.652 203.975 330.12 203.962C329.588 203.937 329.024 203.924 328.429 203.924C327.998 203.924 327.567 203.937 327.137 203.962C326.719 203.975 326.402 203.987 326.187 204V203.601C326.706 203.601 327.073 203.506 327.289 203.316C327.517 203.126 327.631 202.765 327.631 202.233V196.286C327.631 195.716 327.529 195.298 327.327 195.032C327.124 194.753 326.744 194.614 326.187 194.614V194.215C326.592 194.253 326.985 194.272 327.365 194.272C327.732 194.272 328.08 194.253 328.41 194.215C328.752 194.164 329.062 194.095 329.341 194.006V196.381C329.48 196.014 329.676 195.646 329.93 195.279C330.196 194.899 330.512 194.582 330.88 194.329C331.247 194.076 331.652 193.949 332.096 193.949ZM338.932 193.949C339.742 193.949 340.471 194.126 341.117 194.481C341.763 194.836 342.276 195.393 342.656 196.153C343.048 196.913 343.245 197.901 343.245 199.117C343.245 200.333 343.048 201.321 342.656 202.081C342.276 202.828 341.763 203.379 341.117 203.734C340.471 204.089 339.742 204.266 338.932 204.266C338.134 204.266 337.405 204.089 336.747 203.734C336.101 203.379 335.581 202.828 335.189 202.081C334.809 201.321 334.619 200.333 334.619 199.117C334.619 197.901 334.809 196.913 335.189 196.153C335.581 195.393 336.101 194.836 336.747 194.481C337.405 194.126 338.134 193.949 338.932 193.949ZM338.932 194.329C338.21 194.329 337.614 194.703 337.146 195.45C336.69 196.197 336.462 197.42 336.462 199.117C336.462 200.814 336.69 202.037 337.146 202.784C337.614 203.519 338.21 203.886 338.932 203.886C339.654 203.886 340.243 203.519 340.699 202.784C341.167 202.037 341.402 200.814 341.402 199.117C341.402 197.42 341.167 196.197 340.699 195.45C340.243 194.703 339.654 194.329 338.932 194.329ZM348.147 194.215V194.614C347.83 194.614 347.552 194.639 347.311 194.69C347.07 194.728 346.912 194.855 346.836 195.07C346.76 195.285 346.817 195.665 347.007 196.21L348.983 201.872L348.85 201.853L351.643 194.139L352.023 194.291L348.546 204.095C348.495 204.095 348.445 204.095 348.394 204.095C348.343 204.095 348.286 204.095 348.223 204.095L345.107 195.678C344.904 195.171 344.702 194.867 344.499 194.766C344.309 194.665 344.144 194.614 344.005 194.614V194.215C344.258 194.253 344.518 194.285 344.784 194.31C345.063 194.323 345.36 194.329 345.677 194.329C346.07 194.329 346.481 194.316 346.912 194.291C347.355 194.266 347.767 194.24 348.147 194.215ZM358.578 194.215V194.595C358.337 194.62 358.109 194.728 357.894 194.918C357.691 195.095 357.508 195.431 357.343 195.925L354.588 204.095C354.537 204.095 354.487 204.095 354.436 204.095C354.385 204.095 354.328 204.095 354.265 204.095L351.206 196.324L351.643 194.139C351.719 194.139 351.789 194.139 351.852 194.139C351.928 194.139 352.004 194.139 352.08 194.139L355.044 201.986L354.892 202.1L356.773 196.381C356.912 195.95 356.963 195.615 356.925 195.374C356.9 195.121 356.773 194.937 356.545 194.823C356.33 194.696 355.994 194.62 355.538 194.595V194.215C355.766 194.228 355.962 194.24 356.127 194.253C356.292 194.253 356.45 194.259 356.602 194.272C356.767 194.272 356.944 194.272 357.134 194.272C357.425 194.272 357.685 194.266 357.913 194.253C358.154 194.24 358.375 194.228 358.578 194.215Z" fill="white"/>
<path d="M11.94 155H4.8L34.2 57H45.89L70.39 155H58.7L51.42 125.6H20.76L11.94 155ZM37.35 69.95L22.79 118.81H49.67L37.35 69.95ZM76.0305 133.02C76.0305 118.6 84.6405 107.89 101.86 107.89C106.06 107.89 110.82 108.52 116.07 109.92C115.44 99 108.37 97.6 100.74 97.6H88.0705V91.65H100.74C112.99 91.65 125.94 94.66 125.94 111.46V154.79H122.79C115.65 155.98 108.86 156.82 102.77 156.82C86.9505 156.82 76.0305 151.29 76.0305 133.02ZM116.07 150.66V115.17C112.08 114.26 108.58 113.77 105.43 113.77C90.8705 113.77 85.0605 123.08 85.0605 133.02C85.0605 146.32 91.8505 151.36 105.78 151.36C108.86 151.36 112.29 151.15 116.07 150.66ZM137.073 92H145.963V124.2C145.963 138.2 149.603 143.38 159.683 143.38C165.843 143.38 171.513 141.14 174.873 136.59V92H184.673V150.59C184.673 169.21 165.843 180.55 153.173 180.55V172.64C161.853 172.64 174.873 164.31 174.873 150.59V140.93C170.323 146.39 164.443 148.91 157.443 148.91C144.843 148.91 137.073 141.91 137.073 124.2V92ZM195.862 92H205.802V127.91C205.802 146.32 213.152 151.92 220.362 151.92C227.572 151.92 233.732 146.32 233.732 127.91V92H243.672V127.91C243.672 147.02 234.922 156.4 220.362 156.4C205.802 156.4 195.862 147.02 195.862 127.91V92ZM293.921 154.93H251.851L283.141 99H260.741V92H297.561L265.641 148H293.921V154.93ZM303.12 122.87C303.12 103.06 315.86 90.32 334.06 90.32C351.49 90.32 364.51 103.06 364.51 122.87C364.51 143.38 351.49 156.12 334.06 156.12C315.86 156.12 303.12 143.38 303.12 122.87ZM313.76 122.87C313.76 138.48 321.11 151.78 334.06 151.78C346.94 151.78 354.01 138.48 354.01 122.87C354.01 107.47 346.94 94.59 334.06 94.59C321.11 94.59 313.76 107.47 313.76 122.87Z" fill="white"/>
<path d="M305.714 78.6614C305.379 77.0955 304.736 75.5856 303.533 74.4951C302.219 73.2927 300.569 72.9013 298.864 72.9013C297.102 72.9013 295.285 73.3207 293.775 73.6283C292.824 73.824 291.789 74.1036 290.755 74.3273C290.084 74.4951 289.385 74.6349 288.658 74.7468C290.475 73.4326 291.789 71.3075 292.852 69.6577C293.915 68.0359 294.977 66.0507 296.319 64.373C297.242 63.1986 298.305 62.164 299.591 61.409C300.737 60.7659 301.856 60.5422 303.03 60.5422C303.366 60.5422 303.701 60.5702 304.037 60.5981C304.065 60.5981 304.065 60.5981 304.093 60.5981C304.596 60.5981 304.848 59.983 304.484 59.6195C303.785 58.9764 303.03 58.3332 302.219 57.802C300.933 56.9631 299.507 56.3759 297.941 56.3759C297.857 56.3759 297.773 56.3759 297.717 56.3759C294.11 56.5157 291.873 60.1228 290.224 62.6673C289.692 63.5062 289.161 64.4009 288.602 65.2957C288.266 65.827 287.931 66.3303 287.567 66.8616C287.931 64.6526 287.372 62.192 286.952 60.2626C286.533 58.3612 285.918 56.2081 285.666 54.0551C285.498 52.5731 285.498 51.0632 285.89 49.6371C286.337 48.0154 287.288 46.8969 288.462 45.9182C288.881 45.5827 288.63 44.9116 288.099 44.9116C288.099 44.9116 288.099 44.9116 288.071 44.9116C287.12 44.9396 286.141 45.0235 285.191 45.2472C283.625 45.5827 282.115 46.2258 281.024 47.4282C278.564 50.0845 279.542 54.2229 280.185 57.1588C280.381 58.1095 280.661 59.1441 280.884 60.1787C281.136 61.2133 281.332 62.2758 281.472 63.3663C281.639 64.8483 281.639 66.3303 281.248 67.7563C280.856 69.2383 280.018 70.2729 279.011 71.1677C278.004 70.2729 277.193 69.2103 276.774 67.7563C276.383 66.3303 276.383 64.8483 276.55 63.3663C276.662 62.3038 276.886 61.2133 277.138 60.1787C277.389 59.1441 277.641 58.1095 277.837 57.1588C278.48 54.2229 279.43 50.0845 276.998 47.4282C275.879 46.2258 274.397 45.5827 272.831 45.2472C271.881 45.0514 270.874 44.9396 269.951 44.9116C269.951 44.9116 269.951 44.9116 269.923 44.9116C269.392 44.9116 269.141 45.5827 269.56 45.9182C270.706 46.8689 271.685 47.9874 272.132 49.6371C272.524 51.0632 272.552 52.5452 272.356 54.0551C272.104 56.2081 271.461 58.3332 271.07 60.2626C270.65 62.192 270.091 64.6526 270.455 66.8616C270.091 66.3582 269.756 65.827 269.42 65.2957C268.861 64.4009 268.33 63.4782 267.798 62.6673C266.177 60.1507 263.94 56.5157 260.305 56.3759C260.221 56.3759 260.137 56.3759 260.081 56.3759C258.515 56.3759 257.089 56.9631 255.803 57.802C254.964 58.3332 254.209 58.9764 253.538 59.6195C253.174 59.983 253.426 60.5981 253.929 60.5981C253.957 60.5981 253.957 60.5981 253.985 60.5981C254.321 60.5702 254.656 60.5422 254.992 60.5422C256.138 60.5422 257.285 60.7659 258.431 61.409C259.717 62.136 260.78 63.1986 261.703 64.373C263.045 66.0786 264.107 68.0359 265.17 69.6577C266.233 71.3075 267.575 73.4326 269.392 74.7468C267.603 74.4392 265.869 73.9359 264.275 73.6003C262.793 73.2648 260.976 72.8733 259.186 72.8733C257.48 72.8733 255.831 73.2648 254.517 74.4671C252.559 76.2846 252.084 79.0529 252 81.5414C252 81.9049 252.28 82.1286 252.559 82.1286C252.727 82.1286 252.867 82.0727 252.979 81.9329C253.929 80.7585 255.048 79.8078 256.698 79.3604C257.564 79.1367 258.487 79.0249 259.382 79.0249C259.941 79.0249 260.528 79.0529 261.088 79.1367C262.15 79.2486 263.241 79.4723 264.275 79.7239C265.31 79.9756 266.344 80.2272 267.295 80.423C268.805 80.7585 270.595 81.15 272.384 81.15C274.09 81.15 275.739 80.7585 277.054 79.5562C278.032 78.6334 278.647 77.487 279.011 76.2287C279.375 77.487 279.99 78.6334 280.968 79.5562C282.283 80.7585 283.932 81.15 285.638 81.15C287.4 81.15 289.217 80.7306 290.727 80.423C292.628 80.0036 294.781 79.3884 296.934 79.1367C297.522 79.0808 298.081 79.0249 298.668 79.0249C299.563 79.0249 300.486 79.1367 301.352 79.3604C302.974 79.8078 304.093 80.7585 305.071 81.9329C305.183 82.0727 305.351 82.1286 305.491 82.1286C305.798 82.1286 306.078 81.9049 306.05 81.5414C306.022 80.5907 305.91 79.6121 305.714 78.6614ZM289.553 65.9109C289.776 65.5474 290 65.1839 290.224 64.8203C290.559 64.2891 290.867 63.7578 291.174 63.2825L291.314 63.0867C292.88 60.6541 294.837 57.6342 297.773 57.5223C297.829 57.5223 297.913 57.5223 297.969 57.5223C299.143 57.5223 300.346 57.9138 301.632 58.7527C301.968 58.9484 302.275 59.2 302.611 59.4517C301.324 59.5076 300.15 59.8432 299.087 60.4583C297.801 61.1853 296.627 62.2479 295.48 63.7019C294.502 64.9322 293.691 66.2464 292.908 67.5326C292.572 68.0639 292.265 68.5952 291.957 69.0705L291.845 69.2663C290.363 71.5871 288.322 74.7468 285.358 74.8586C285.302 74.8586 285.218 74.8586 285.163 74.8586C283.709 74.8586 282.171 74.2155 280.521 72.9292C281.835 72.8733 282.982 72.5378 284.044 71.9226C285.33 71.1956 286.505 70.1331 287.623 68.707C288.406 67.7284 289.077 66.7217 289.553 65.9109ZM282.31 68.1198C282.702 66.6938 282.786 65.1279 282.562 63.3104C282.422 62.1081 282.171 60.9057 281.947 60.0109C281.863 59.5915 281.751 59.1721 281.667 58.7806C281.528 58.1655 281.388 57.5783 281.248 57.019L281.192 56.7953C280.577 53.9712 279.822 50.448 281.835 48.295C282.674 47.3723 283.848 46.7851 285.442 46.4495C285.806 46.3656 286.225 46.3097 286.617 46.2538C285.722 47.2324 285.163 48.2391 284.827 49.4414C284.436 50.8675 284.352 52.4333 284.547 54.2788C284.743 55.8446 285.107 57.3546 285.442 58.8086C285.582 59.4237 285.722 60.0109 285.862 60.5702L285.918 60.7939C286.505 63.4782 287.288 67.1691 285.302 69.3222C284.268 70.4407 282.702 71.1117 280.521 71.3634C281.276 70.5245 281.947 69.49 282.31 68.1198ZM272.104 60.7379L272.16 60.5142C272.272 59.955 272.412 59.3678 272.58 58.7527C272.943 57.2987 273.307 55.7887 273.475 54.2229C273.698 52.3774 273.586 50.8115 273.195 49.3855C272.859 48.1831 272.3 47.1486 271.405 46.1979C271.825 46.2538 272.216 46.3097 272.608 46.3936C274.174 46.7291 275.348 47.3443 276.215 48.2391C278.228 50.3921 277.445 53.9153 276.858 56.7394L276.802 56.9631C276.69 57.5223 276.55 58.1095 276.383 58.7247C276.299 59.1162 276.187 59.5356 276.103 59.955C275.907 60.8498 275.628 62.0521 275.488 63.2545C275.292 65.072 275.376 66.6379 275.739 68.0639C276.103 69.434 276.802 70.4686 277.529 71.2795C275.348 71.0278 273.782 70.3568 272.748 69.2383C270.734 67.1132 271.517 63.4223 272.104 60.7379ZM266.205 69.2663L266.093 69.0705C265.785 68.5952 265.478 68.0639 265.142 67.5326C264.359 66.2464 263.548 64.9322 262.57 63.7019C261.423 62.2479 260.249 61.1853 258.962 60.4863C257.9 59.8711 256.726 59.5636 255.439 59.4797C255.775 59.228 256.082 58.9764 256.418 58.7806C257.704 57.9418 258.907 57.5503 260.081 57.5503C260.137 57.5503 260.221 57.5503 260.277 57.5503C263.213 57.6342 265.142 60.682 266.736 63.1147L266.876 63.3104C267.183 63.7858 267.519 64.317 267.826 64.8483C268.05 65.2118 268.274 65.5753 268.497 65.9388C269.001 66.7217 269.644 67.7563 270.399 68.707C271.545 70.1331 272.72 71.1956 273.978 71.9226C275.04 72.5378 276.215 72.8733 277.501 72.9292C275.851 74.2434 274.341 74.8586 272.859 74.8586C272.804 74.8586 272.72 74.8586 272.664 74.8586C269.728 74.7468 267.687 71.5591 266.205 69.2663ZM278.144 75.1662C277.809 76.732 277.193 77.9064 276.299 78.7732C275.348 79.6401 274.09 80.0595 272.384 80.0595C270.818 80.0595 269.196 79.696 267.77 79.3884L267.547 79.3325C266.987 79.2206 266.4 79.0808 265.785 78.913C265.394 78.8292 264.974 78.7173 264.555 78.6334C263.66 78.4377 262.458 78.1581 261.255 78.0183C260.612 77.9344 259.997 77.9064 259.41 77.9064C258.347 77.9064 257.369 78.0183 256.446 78.2699C255.076 78.6334 254.041 79.3325 253.23 80.0595C253.482 77.8785 254.153 76.3126 255.272 75.278C256.194 74.4112 257.48 73.9918 259.186 73.9918C260.752 73.9918 262.374 74.3553 263.8 74.6629L264.024 74.7188C264.583 74.8306 265.17 74.9704 265.785 75.1382C267.239 75.5017 268.749 75.8652 270.315 76.033C270.986 76.1169 271.573 76.1448 272.16 76.1448C273.251 76.1448 274.202 76.033 275.124 75.7534C276.327 75.4178 277.361 74.8586 278.312 73.9638C278.284 74.3832 278.228 74.7747 278.144 75.1662ZM301.632 78.2699C300.709 78.0183 299.731 77.8785 298.668 77.8785C298.081 77.8785 297.466 77.9064 296.823 77.9903C295.257 78.186 293.747 78.5495 292.293 78.8851C291.678 79.0249 291.09 79.1647 290.531 79.3045L290.308 79.3604C288.881 79.668 287.26 80.0315 285.694 80.0315C283.988 80.0315 282.73 79.6121 281.779 78.7453C280.661 77.7107 279.99 76.1448 279.738 73.9638C280.521 74.6908 281.556 75.3619 282.954 75.7534C283.876 76.005 284.855 76.1169 285.918 76.1169C286.505 76.1169 287.12 76.0889 287.763 76.005C288.965 75.8652 290.168 75.6136 291.062 75.3899C291.482 75.306 291.901 75.1941 292.293 75.1103C292.908 74.9704 293.495 74.8306 294.054 74.6908L294.278 74.6349C295.704 74.3273 297.326 73.9638 298.892 73.9638C300.569 73.9638 301.856 74.3833 302.806 75.2501C303.729 76.0889 304.316 77.2633 304.652 78.8571C304.736 79.2206 304.792 79.6401 304.848 80.0315C303.841 79.1927 302.834 78.6055 301.632 78.2699Z" fill="url(#paint0_linear_101_67)"/>
<path d="M279.01 41.6681C281.387 41.6681 283.344 39.7388 283.344 37.3341C283.344 34.9573 281.415 33 279.01 33C276.633 33 274.676 34.9294 274.676 37.3341C274.704 39.7388 276.633 41.6681 279.01 41.6681ZM279.01 34.482C280.604 34.482 281.89 35.7682 281.89 37.362C281.89 38.9558 280.604 40.2421 279.01 40.2421C277.416 40.2421 276.13 38.9558 276.13 37.362C276.13 35.7682 277.416 34.482 279.01 34.482Z" fill="url(#paint1_linear_101_67)"/>
<path d="M64.6188 70.1497C88.6857 45.2126 119.653 30.0234 152.668 26.8908C185.683 23.7581 218.969 32.8509 247.323 52.8149" stroke="url(#paint2_linear_101_67)" stroke-width="6" stroke-linecap="round" stroke-linejoin="round"/>
<defs>
<linearGradient id="paint0_linear_101_67" x1="279.026" y1="44.9116" x2="279.026" y2="82.1286" gradientUnits="userSpaceOnUse">
<stop offset="0.178" stop-color="#EEC340"/>
<stop offset="0.388" stop-color="#FDE151"/>
<stop offset="0.763" stop-color="#DEAC17"/>
<stop offset="1" stop-color="#EEC340"/>
</linearGradient>
<linearGradient id="paint1_linear_101_67" x1="279.01" y1="33" x2="279.01" y2="41.6681" gradientUnits="userSpaceOnUse">
<stop offset="0.178" stop-color="#EEC340"/>
<stop offset="0.388" stop-color="#FDE151"/>
<stop offset="0.763" stop-color="#DEAC17"/>
<stop offset="1" stop-color="#EEC340"/>
</linearGradient>
<linearGradient id="paint2_linear_101_67" x1="-21.7091" y1="155.158" x2="245.362" y2="34.303" gradientUnits="userSpaceOnUse">
<stop offset="0.4" stop-opacity="0.12"/>
<stop offset="0.65469" stop-color="#FDE151"/>
<stop offset="0.841312" stop-color="#DEAC17"/>
<stop offset="1" stop-color="#FFF5D7"/>
</linearGradient>
</defs>
</svg>
